%TF.GenerationSoftware,KiCad,Pcbnew,10.0.4*%
%TF.CreationDate,2026-08-18T19:10:05+02:00*%
%TF.ProjectId,ruler_kicad,72756c65-725f-46b6-9963-61642e6b6963,rev?*%
%TF.SameCoordinates,Original*%
%TF.FileFunction,Profile,NP*%
%FSLAX46Y46*%
G04 Gerber Fmt 4.6, Leading zero omitted, Abs format (unit mm)*
G04 Created by KiCad (PCBNEW 10.0.4) date 2026-08-18 19:10:05*
%MOMM*%
%LPD*%
G01*
G04 APERTURE LIST*
%TA.AperFunction,Profile*%
%ADD10C,0.200000*%
%TD*%
%TA.AperFunction,Profile*%
%ADD11C,0.050000*%
%TD*%
G04 APERTURE END LIST*
D10*
X377385946Y-120309764D02*
X377487778Y-120317459D01*
X377588097Y-120330134D01*
X377686780Y-120347663D01*
X377783701Y-120369924D01*
X377878738Y-120396793D01*
X377971766Y-120428146D01*
X378062663Y-120463859D01*
X378151303Y-120503808D01*
X378237564Y-120547870D01*
X378321322Y-120595920D01*
X378402452Y-120647835D01*
X378480831Y-120703492D01*
X378556336Y-120762766D01*
X378628842Y-120825534D01*
X378698225Y-120891671D01*
X378764363Y-120961055D01*
X378827130Y-121033561D01*
X378886404Y-121109065D01*
X378942061Y-121187445D01*
X378993976Y-121268575D01*
X379042026Y-121352332D01*
X379086088Y-121438593D01*
X379126037Y-121527234D01*
X379161750Y-121618130D01*
X379193103Y-121711158D01*
X379219971Y-121806195D01*
X379242232Y-121903117D01*
X379259762Y-122001799D01*
X379272436Y-122102118D01*
X379280132Y-122203950D01*
X379282725Y-122307171D01*
X379282725Y-153312830D01*
X379280132Y-153416051D01*
X379272436Y-153517884D01*
X379259762Y-153618202D01*
X379242232Y-153716885D01*
X379219971Y-153813806D01*
X379193103Y-153908843D01*
X379161750Y-154001871D01*
X379126037Y-154092768D01*
X379086088Y-154181408D01*
X379042026Y-154267669D01*
X378993976Y-154351427D01*
X378942061Y-154432557D01*
X378886404Y-154510936D01*
X378827130Y-154586441D01*
X378764363Y-154658947D01*
X378698225Y-154728330D01*
X378628842Y-154794468D01*
X378556336Y-154857235D01*
X378480831Y-154916509D01*
X378402452Y-154972166D01*
X378321322Y-155024081D01*
X378237564Y-155072132D01*
X378151303Y-155116193D01*
X378062663Y-155156142D01*
X377971766Y-155191855D01*
X377878738Y-155223208D01*
X377783701Y-155250076D01*
X377686780Y-155272337D01*
X377588097Y-155289867D01*
X377487778Y-155302542D01*
X377385946Y-155310237D01*
X377282725Y-155312830D01*
X76362346Y-155312830D01*
X76259125Y-155310237D01*
X76157292Y-155302542D01*
X76056973Y-155289867D01*
X75958291Y-155272337D01*
X75861370Y-155250076D01*
X75766333Y-155223208D01*
X75673305Y-155191855D01*
X75582409Y-155156142D01*
X75493768Y-155116193D01*
X75407507Y-155072132D01*
X75323750Y-155024081D01*
X75242619Y-154972166D01*
X75164240Y-154916509D01*
X75088736Y-154857235D01*
X75016230Y-154794468D01*
X74946846Y-154728330D01*
X74880709Y-154658947D01*
X74817941Y-154586441D01*
X74758667Y-154510936D01*
X74703010Y-154432557D01*
X74651095Y-154351427D01*
X74603044Y-154267669D01*
X74558983Y-154181408D01*
X74519034Y-154092768D01*
X74483321Y-154001871D01*
X74451968Y-153908843D01*
X74425099Y-153813806D01*
X74402838Y-153716885D01*
X74385309Y-153618202D01*
X74372634Y-153517884D01*
X74364939Y-153416051D01*
X74362346Y-153312830D01*
X74362346Y-122307171D01*
X74364939Y-122203950D01*
X74372634Y-122102118D01*
X74385309Y-122001799D01*
X74402838Y-121903117D01*
X74425099Y-121806195D01*
X74451968Y-121711158D01*
X74483321Y-121618130D01*
X74519034Y-121527234D01*
X74558983Y-121438593D01*
X74603044Y-121352332D01*
X74651095Y-121268575D01*
X74703010Y-121187445D01*
X74758667Y-121109065D01*
X74817941Y-121033561D01*
X74880709Y-120961055D01*
X74946846Y-120891671D01*
X75016230Y-120825534D01*
X75088736Y-120762766D01*
X75164240Y-120703492D01*
X75242619Y-120647835D01*
X75323750Y-120595920D01*
X75407507Y-120547870D01*
X75493768Y-120503808D01*
X75582408Y-120463859D01*
X75673305Y-120428146D01*
X75766333Y-120396793D01*
X75861370Y-120369924D01*
X75958291Y-120347663D01*
X76056973Y-120330134D01*
X76157292Y-120317459D01*
X76259125Y-120309764D01*
X76362346Y-120307171D01*
X377282725Y-120307171D01*
X377385946Y-120309764D01*
D11*
X374470000Y-137810000D02*
G75*
G02*
X368470000Y-137810000I-3000000J0D01*
G01*
X368470000Y-137810000D02*
G75*
G02*
X374470000Y-137810000I3000000J0D01*
G01*
M02*
