%TF.GenerationSoftware,KiCad,Pcbnew,10.0.4*%
%TF.CreationDate,2026-08-18T19:10:05+02:00*%
%TF.ProjectId,ruler_kicad,72756c65-725f-46b6-9963-61642e6b6963,rev?*%
%TF.SameCoordinates,Original*%
%TF.FileFunction,Copper,L1,Top*%
%TF.FilePolarity,Positive*%
%FSLAX46Y46*%
G04 Gerber Fmt 4.6, Leading zero omitted, Abs format (unit mm)*
G04 Created by KiCad (PCBNEW 10.0.4) date 2026-08-18 19:10:05*
%MOMM*%
%LPD*%
G01*
G04 APERTURE LIST*
G04 Aperture macros list*
%AMRoundRect*
0 Rectangle with rounded corners*
0 $1 Rounding radius*
0 $2 $3 $4 $5 $6 $7 $8 $9 X,Y pos of 4 corners*
0 Add a 4 corners polygon primitive as box body*
4,1,4,$2,$3,$4,$5,$6,$7,$8,$9,$2,$3,0*
0 Add four circle primitives for the rounded corners*
1,1,$1+$1,$2,$3*
1,1,$1+$1,$4,$5*
1,1,$1+$1,$6,$7*
1,1,$1+$1,$8,$9*
0 Add four rect primitives between the rounded corners*
20,1,$1+$1,$2,$3,$4,$5,0*
20,1,$1+$1,$4,$5,$6,$7,0*
20,1,$1+$1,$6,$7,$8,$9,0*
20,1,$1+$1,$8,$9,$2,$3,0*%
G04 Aperture macros list end*
%TA.AperFunction,SMDPad,CuDef*%
%ADD10RoundRect,0.250000X1.450000X-0.537500X1.450000X0.537500X-1.450000X0.537500X-1.450000X-0.537500X0*%
%TD*%
%TA.AperFunction,SMDPad,CuDef*%
%ADD11RoundRect,0.250000X-0.362500X-1.075000X0.362500X-1.075000X0.362500X1.075000X-0.362500X1.075000X0*%
%TD*%
%TA.AperFunction,SMDPad,CuDef*%
%ADD12RoundRect,0.237500X-0.237500X-0.837500X0.237500X-0.837500X0.237500X0.837500X-0.237500X0.837500X0*%
%TD*%
%TA.AperFunction,SMDPad,CuDef*%
%ADD13RoundRect,0.200000X-0.200000X-0.275000X0.200000X-0.275000X0.200000X0.275000X-0.200000X0.275000X0*%
%TD*%
%TA.AperFunction,SMDPad,CuDef*%
%ADD14RoundRect,0.150000X-0.950000X-0.150000X0.950000X-0.150000X0.950000X0.150000X-0.950000X0.150000X0*%
%TD*%
%TA.AperFunction,SMDPad,CuDef*%
%ADD15RoundRect,0.537500X-0.537500X-1.187500X0.537500X-1.187500X0.537500X1.187500X-0.537500X1.187500X0*%
%TD*%
%TA.AperFunction,SMDPad,CuDef*%
%ADD16RoundRect,0.250000X-1.137500X-0.550000X1.137500X-0.550000X1.137500X0.550000X-1.137500X0.550000X0*%
%TD*%
%TA.AperFunction,SMDPad,CuDef*%
%ADD17RoundRect,0.250000X-0.250000X-1.450000X0.250000X-1.450000X0.250000X1.450000X-0.250000X1.450000X0*%
%TD*%
%TA.AperFunction,SMDPad,CuDef*%
%ADD18RoundRect,0.150000X0.825000X0.150000X-0.825000X0.150000X-0.825000X-0.150000X0.825000X-0.150000X0*%
%TD*%
%TA.AperFunction,SMDPad,CuDef*%
%ADD19RoundRect,0.250000X-0.312500X-1.075000X0.312500X-1.075000X0.312500X1.075000X-0.312500X1.075000X0*%
%TD*%
%TA.AperFunction,SMDPad,CuDef*%
%ADD20RoundRect,0.250000X-0.250000X-0.475000X0.250000X-0.475000X0.250000X0.475000X-0.250000X0.475000X0*%
%TD*%
%TA.AperFunction,SMDPad,CuDef*%
%ADD21RoundRect,0.250000X-0.325000X-2.350000X0.325000X-2.350000X0.325000X2.350000X-0.325000X2.350000X0*%
%TD*%
%TA.AperFunction,SMDPad,CuDef*%
%ADD22RoundRect,0.250000X-0.312500X-0.625000X0.312500X-0.625000X0.312500X0.625000X-0.312500X0.625000X0*%
%TD*%
%TA.AperFunction,SMDPad,CuDef*%
%ADD23RoundRect,0.062500X-0.062500X0.375000X-0.062500X-0.375000X0.062500X-0.375000X0.062500X0.375000X0*%
%TD*%
%TA.AperFunction,SMDPad,CuDef*%
%ADD24RoundRect,0.062500X-0.375000X0.062500X-0.375000X-0.062500X0.375000X-0.062500X0.375000X0.062500X0*%
%TD*%
%TA.AperFunction,HeatsinkPad*%
%ADD25R,2.500000X2.500000*%
%TD*%
%TA.AperFunction,SMDPad,CuDef*%
%ADD26RoundRect,0.250000X-0.262500X-1.775000X0.262500X-1.775000X0.262500X1.775000X-0.262500X1.775000X0*%
%TD*%
%TA.AperFunction,SMDPad,CuDef*%
%ADD27RoundRect,0.250000X-0.262500X-0.450000X0.262500X-0.450000X0.262500X0.450000X-0.262500X0.450000X0*%
%TD*%
%TA.AperFunction,SMDPad,CuDef*%
%ADD28RoundRect,0.250000X-0.312500X-1.450000X0.312500X-1.450000X0.312500X1.450000X-0.312500X1.450000X0*%
%TD*%
%TA.AperFunction,Conductor*%
%ADD29C,0.800000*%
%TD*%
%TA.AperFunction,Conductor*%
%ADD30C,0.250000*%
%TD*%
%TA.AperFunction,Conductor*%
%ADD31C,0.500000*%
%TD*%
G04 APERTURE END LIST*
D10*
%TO.P,C2,1*%
%TO.N,unconnected-(C2-Pad1)*%
X231605000Y-144737500D03*
%TO.P,C2,2*%
%TO.N,Net-(C2-Pad2)*%
X231605000Y-140462500D03*
%TD*%
D11*
%TO.P,R10,1*%
%TO.N,unconnected-(R10-Pad1)*%
X137692500Y-143803200D03*
%TO.P,R10,2*%
%TO.N,unconnected-(R10-Pad2)*%
X142317500Y-143803200D03*
%TD*%
D12*
%TO.P,R1,1*%
%TO.N,unconnected-(R1-Pad1)*%
X91625000Y-131603200D03*
%TO.P,R1,2*%
%TO.N,unconnected-(R1-Pad2)*%
X92775000Y-131603200D03*
%TD*%
D13*
%TO.P,R2,1*%
%TO.N,unconnected-(R2-Pad1)*%
X91375000Y-135203200D03*
%TO.P,R2,2*%
%TO.N,unconnected-(R2-Pad2)*%
X93025000Y-135203200D03*
%TD*%
D14*
%TO.P,U3,1*%
%TO.N,Net-(U1-LO)*%
X283662500Y-138260000D03*
%TO.P,U3,2,GND_2*%
%TO.N,Net-(U1-PGND)*%
X283662500Y-139530000D03*
%TO.P,U3,3*%
%TO.N,Net-(U1-EN{slash}FLT)*%
X283662500Y-140800000D03*
%TO.P,U3,4*%
%TO.N,Net-(U1-LIN)*%
X283662500Y-142070000D03*
%TO.P,U3,5,VCC_5*%
%TO.N,Net-(U1-HIN)*%
X283662500Y-143340000D03*
D15*
%TO.P,U3,6*%
%TO.N,Net-(U1-VDD)*%
X289962500Y-140800000D03*
%TD*%
D16*
%TO.P,C1,1*%
%TO.N,Net-(U2-~{STBY})*%
X275480000Y-133600000D03*
%TO.P,C1,2*%
%TO.N,Net-(U1-VDD)*%
X279605000Y-133600000D03*
%TD*%
D17*
%TO.P,R3,1*%
%TO.N,unconnected-(R3-Pad1)*%
X91450000Y-139375000D03*
%TO.P,R3,2*%
%TO.N,unconnected-(R3-Pad2)*%
X92950000Y-139375000D03*
%TD*%
D10*
%TO.P,C3,1*%
%TO.N,Net-(U1-VS)*%
X251605000Y-135537500D03*
%TO.P,C3,2*%
%TO.N,Net-(U2-~{STBY})*%
X251605000Y-131262500D03*
%TD*%
D18*
%TO.P,U1,1,VDD_1*%
%TO.N,Net-(U1-VDD)*%
X262955000Y-142000000D03*
%TO.P,U1,2,HIN_2*%
%TO.N,Net-(U1-HIN)*%
X262955000Y-140730000D03*
%TO.P,U1,3,LIN_3*%
%TO.N,Net-(U1-LIN)*%
X262955000Y-139460000D03*
%TO.P,U1,4,EN/FLT_4*%
%TO.N,Net-(U1-EN{slash}FLT)*%
X262955000Y-138190000D03*
%TO.P,U1,5,GND_5*%
%TO.N,unconnected-(U1-GND-Pad5)*%
X262955000Y-136920000D03*
%TO.P,U1,6,PGND_6*%
%TO.N,Net-(U1-PGND)*%
X262955000Y-135650000D03*
%TO.P,U1,7,LO_7*%
%TO.N,Net-(U1-LO)*%
X262955000Y-134380000D03*
%TO.P,U1,8,NC_8*%
%TO.N,unconnected-(U1-NC-Pad8)*%
X258005000Y-134380000D03*
%TO.P,U1,9,NC_9*%
%TO.N,unconnected-(U1-NC-Pad9)*%
X258005000Y-135650000D03*
%TO.P,U1,10,VS_10*%
%TO.N,Net-(U1-VS)*%
X258005000Y-136920000D03*
%TO.P,U1,11,HO_11*%
%TO.N,Net-(U1-HO)*%
X258005000Y-138190000D03*
%TO.P,U1,12,VB_12*%
%TO.N,Net-(U1-VB)*%
X258005000Y-139460000D03*
%TO.P,U1,13,NC_13*%
%TO.N,unconnected-(U1-NC-Pad13)*%
X258005000Y-140730000D03*
%TO.P,U1,14,NC_14*%
%TO.N,unconnected-(U1-NC-Pad14)*%
X258005000Y-142000000D03*
%TD*%
D11*
%TO.P,R11,1*%
%TO.N,Net-(U2-MCL)*%
X223897500Y-134205000D03*
%TO.P,R11,2*%
%TO.N,Net-(C2-Pad2)*%
X228522500Y-134205000D03*
%TD*%
D19*
%TO.P,R8,1*%
%TO.N,unconnected-(R8-Pad1)*%
X138537500Y-131598200D03*
%TO.P,R8,2*%
%TO.N,unconnected-(R8-Pad2)*%
X141462500Y-131598200D03*
%TD*%
D20*
%TO.P,C4,1*%
%TO.N,Net-(C2-Pad2)*%
X233255000Y-134200000D03*
%TO.P,C4,2*%
%TO.N,Net-(U2-ID)*%
X235155000Y-134200000D03*
%TD*%
D21*
%TO.P,R6,1*%
%TO.N,unconnected-(R6-Pad1)*%
X114075000Y-138398200D03*
%TO.P,R6,2*%
%TO.N,unconnected-(R6-Pad2)*%
X116325000Y-138398200D03*
%TD*%
D22*
%TO.P,R7,1*%
%TO.N,unconnected-(R7-Pad1)*%
X113737500Y-143998200D03*
%TO.P,R7,2*%
%TO.N,unconnected-(R7-Pad2)*%
X116662500Y-143998200D03*
%TD*%
D23*
%TO.P,U2,1,~{CHK}_1*%
%TO.N,unconnected-(U2-~{CHK}-Pad1)*%
X240517500Y-137287500D03*
%TO.P,U2,2,~{STBY}_2*%
%TO.N,Net-(U2-~{STBY})*%
X240017500Y-137287500D03*
%TO.P,U2,3,~{CS}/A1_3*%
%TO.N,unconnected-(U2-~{CS}{slash}A1-Pad3)*%
X239517500Y-137287500D03*
%TO.P,U2,4,ID_4*%
%TO.N,Net-(U2-ID)*%
X239017500Y-137287500D03*
%TO.P,U2,5,EC_5*%
%TO.N,unconnected-(U2-EC-Pad5)*%
X238517500Y-137287500D03*
%TO.P,U2,6,MOSI/A0_6*%
%TO.N,unconnected-(U2-MOSI{slash}A0-Pad6)*%
X238017500Y-137287500D03*
D24*
%TO.P,U2,7,SCLK/SCL_7*%
%TO.N,unconnected-(U2-SCLK{slash}SCL-Pad7)*%
X237330000Y-137975000D03*
%TO.P,U2,8,MISO/SDA_8*%
%TO.N,unconnected-(U2-MISO{slash}SDA-Pad8)*%
X237330000Y-138475000D03*
%TO.P,U2,9,ANIN_9*%
%TO.N,unconnected-(U2-ANIN-Pad9)*%
X237330000Y-138975000D03*
%TO.P,U2,10,MCH_10*%
%TO.N,unconnected-(U2-MCH-Pad10)*%
X237330000Y-139475000D03*
%TO.P,U2,11,MCL_11*%
%TO.N,Net-(U2-MCL)*%
X237330000Y-139975000D03*
%TO.P,U2,12,MOD_12*%
%TO.N,unconnected-(U2-MOD-Pad12)*%
X237330000Y-140475000D03*
D23*
%TO.P,U2,13,CI_13*%
%TO.N,unconnected-(U2-CI-Pad13)*%
X238017500Y-141162500D03*
%TO.P,U2,14,CIL_14*%
%TO.N,unconnected-(U2-CIL-Pad14)*%
X238517500Y-141162500D03*
%TO.P,U2,15,VRN_15*%
%TO.N,unconnected-(U2-VRN-Pad15)*%
X239017500Y-141162500D03*
%TO.P,U2,16,VRP_16*%
%TO.N,unconnected-(U2-VRP-Pad16)*%
X239517500Y-141162500D03*
%TO.P,U2,17,VBL_17*%
%TO.N,unconnected-(U2-VBL-Pad17)*%
X240017500Y-141162500D03*
%TO.P,U2,18,MD_18*%
%TO.N,unconnected-(U2-MD-Pad18)*%
X240517500Y-141162500D03*
D24*
%TO.P,U2,19,MR_19*%
%TO.N,unconnected-(U2-MR-Pad19)*%
X241205000Y-140475000D03*
%TO.P,U2,20,GND_20*%
%TO.N,Net-(U2-GND-Pad20)*%
X241205000Y-139975000D03*
%TO.P,U2,21,DCO_21*%
%TO.N,unconnected-(U2-DCO-Pad21)*%
X241205000Y-139475000D03*
%TO.P,U2,22,INS_22*%
%TO.N,unconnected-(U2-INS-Pad22)*%
X241205000Y-138975000D03*
%TO.P,U2,23,VDD_23*%
%TO.N,Net-(U1-VB)*%
X241205000Y-138475000D03*
%TO.P,U2,24,VB_24*%
%TO.N,Net-(U1-HO)*%
X241205000Y-137975000D03*
D25*
%TO.P,U2,25,GND_25*%
%TO.N,Net-(U2-GND-Pad20)*%
X239267500Y-139225000D03*
%TD*%
D26*
%TO.P,R5,1*%
%TO.N,unconnected-(R5-Pad1)*%
X114262500Y-131598200D03*
%TO.P,R5,2*%
%TO.N,unconnected-(R5-Pad2)*%
X116137500Y-131598200D03*
%TD*%
D27*
%TO.P,R4,1*%
%TO.N,unconnected-(R4-Pad1)*%
X91287500Y-143800000D03*
%TO.P,R4,2*%
%TO.N,unconnected-(R4-Pad2)*%
X93112500Y-143800000D03*
%TD*%
D28*
%TO.P,R9,1*%
%TO.N,unconnected-(R9-Pad1)*%
X137862500Y-137798200D03*
%TO.P,R9,2*%
%TO.N,unconnected-(R9-Pad2)*%
X142137500Y-137798200D03*
%TD*%
%TO.N,*%
D29*
X351800000Y-140800000D02*
X350200000Y-139200000D01*
X363200000Y-140800000D02*
X351800000Y-140800000D01*
X364800000Y-135800000D02*
X364800000Y-139200000D01*
X364800000Y-139200000D02*
X363200000Y-140800000D01*
X351800000Y-134200000D02*
X357000000Y-134200000D01*
X363200000Y-134200000D02*
X364800000Y-135800000D01*
X350200000Y-139000000D02*
X350200000Y-135800000D01*
X357000000Y-134200000D02*
X363200000Y-134200000D01*
X350200000Y-135800000D02*
X351800000Y-134200000D01*
%TO.N,Net-(U2-GND-Pad20)*%
D30*
X240017500Y-139975000D02*
X239267500Y-139225000D01*
X241205000Y-139975000D02*
X240017500Y-139975000D01*
%TO.N,Net-(U1-VB)*%
X244680000Y-138475000D02*
X241205000Y-138475000D01*
X245665000Y-139460000D02*
X244680000Y-138475000D01*
X258005000Y-139460000D02*
X245665000Y-139460000D01*
%TO.N,Net-(U1-VS)*%
X258005000Y-136920000D02*
X252987500Y-136920000D01*
X252987500Y-136920000D02*
X251605000Y-135537500D01*
%TO.N,Net-(U2-~{STBY})*%
D31*
X251605000Y-131262500D02*
X265667500Y-131262500D01*
D30*
X240017500Y-135587500D02*
X244342500Y-131262500D01*
X240017500Y-137287500D02*
X240017500Y-135587500D01*
X244342500Y-131262500D02*
X251605000Y-131262500D01*
D31*
X268005000Y-133600000D02*
X275480000Y-133600000D01*
X265667500Y-131262500D02*
X268005000Y-133600000D01*
%TO.N,Net-(U2-ID)*%
D30*
X239017500Y-135612500D02*
X237605000Y-134200000D01*
X239017500Y-137287500D02*
X239017500Y-135612500D01*
X237605000Y-134200000D02*
X235155000Y-134200000D01*
%TO.N,Net-(U2-MCL)*%
X223897500Y-143092500D02*
X227205000Y-146400000D01*
X236230000Y-139975000D02*
X237330000Y-139975000D01*
X227205000Y-146400000D02*
X234405000Y-146400000D01*
X223897500Y-134205000D02*
X223897500Y-143092500D01*
X235405000Y-145400000D02*
X235405000Y-140800000D01*
X234405000Y-146400000D02*
X235405000Y-145400000D01*
X235405000Y-140800000D02*
X236230000Y-139975000D01*
%TO.N,Net-(C2-Pad2)*%
D29*
X233255000Y-134200000D02*
X233250000Y-134205000D01*
D31*
X231605000Y-138400000D02*
X231605000Y-140462500D01*
D29*
X233250000Y-134205000D02*
X228522500Y-134205000D01*
D31*
X233255000Y-134200000D02*
X233255000Y-136750000D01*
X233255000Y-136750000D02*
X231605000Y-138400000D01*
%TO.N,Net-(U1-HIN)*%
D30*
X270685000Y-143480000D02*
X267935000Y-140730000D01*
X267935000Y-140730000D02*
X262955000Y-140730000D01*
X283662500Y-143340000D02*
X283522500Y-143480000D01*
X283522500Y-143480000D02*
X270685000Y-143480000D01*
%TO.N,Net-(U1-PGND)*%
X283662500Y-139530000D02*
X283522500Y-139670000D01*
X272075000Y-139670000D02*
X268055000Y-135650000D01*
X283522500Y-139670000D02*
X272075000Y-139670000D01*
X268055000Y-135650000D02*
X262955000Y-135650000D01*
%TO.N,Net-(U1-LIN)*%
X283522500Y-142210000D02*
X271215000Y-142210000D01*
X283662500Y-142070000D02*
X283522500Y-142210000D01*
X268465000Y-139460000D02*
X262955000Y-139460000D01*
X271215000Y-142210000D02*
X268465000Y-139460000D01*
%TO.N,Net-(U1-EN{slash}FLT)*%
X271745000Y-140940000D02*
X268995000Y-138190000D01*
X283522500Y-140940000D02*
X271745000Y-140940000D01*
X283662500Y-140800000D02*
X283522500Y-140940000D01*
X268995000Y-138190000D02*
X262955000Y-138190000D01*
%TO.N,Net-(U1-VDD)*%
X288200000Y-144600000D02*
X289962500Y-142837500D01*
D29*
X289962500Y-140800000D02*
X289962500Y-137362500D01*
D30*
X270205000Y-144600000D02*
X288200000Y-144600000D01*
D29*
X286200000Y-133600000D02*
X279605000Y-133600000D01*
D30*
X262955000Y-142000000D02*
X267605000Y-142000000D01*
X267605000Y-142000000D02*
X270205000Y-144600000D01*
X289962500Y-142837500D02*
X289962500Y-140800000D01*
D29*
X289962500Y-137362500D02*
X286200000Y-133600000D01*
%TO.N,Net-(U1-LO)*%
D30*
X283522500Y-138400000D02*
X272405000Y-138400000D01*
X283662500Y-138260000D02*
X283522500Y-138400000D01*
X272405000Y-138400000D02*
X268385000Y-134380000D01*
X268385000Y-134380000D02*
X262955000Y-134380000D01*
%TO.N,Net-(U1-HO)*%
X258005000Y-138190000D02*
X245195000Y-138190000D01*
X245195000Y-138190000D02*
X244980000Y-137975000D01*
X244980000Y-137975000D02*
X241205000Y-137975000D01*
%TD*%
M02*
