%TF.GenerationSoftware,KiCad,Pcbnew,10.0.4*%
%TF.CreationDate,2026-08-18T19:10:05+02:00*%
%TF.ProjectId,ruler_kicad,72756c65-725f-46b6-9963-61642e6b6963,rev?*%
%TF.SameCoordinates,Original*%
%TF.FileFunction,Soldermask,Top*%
%TF.FilePolarity,Negative*%
%FSLAX46Y46*%
G04 Gerber Fmt 4.6, Leading zero omitted, Abs format (unit mm)*
G04 Created by KiCad (PCBNEW 10.0.4) date 2026-08-18 19:10:05*
%MOMM*%
%LPD*%
G01*
G04 APERTURE LIST*
G04 Aperture macros list*
%AMRoundRect*
0 Rectangle with rounded corners*
0 $1 Rounding radius*
0 $2 $3 $4 $5 $6 $7 $8 $9 X,Y pos of 4 corners*
0 Add a 4 corners polygon primitive as box body*
4,1,4,$2,$3,$4,$5,$6,$7,$8,$9,$2,$3,0*
0 Add four circle primitives for the rounded corners*
1,1,$1+$1,$2,$3*
1,1,$1+$1,$4,$5*
1,1,$1+$1,$6,$7*
1,1,$1+$1,$8,$9*
0 Add four rect primitives between the rounded corners*
20,1,$1+$1,$2,$3,$4,$5,0*
20,1,$1+$1,$4,$5,$6,$7,0*
20,1,$1+$1,$6,$7,$8,$9,0*
20,1,$1+$1,$8,$9,$2,$3,0*%
G04 Aperture macros list end*
%ADD10RoundRect,0.250000X1.450000X-0.537500X1.450000X0.537500X-1.450000X0.537500X-1.450000X-0.537500X0*%
%ADD11RoundRect,0.250000X-0.362500X-1.075000X0.362500X-1.075000X0.362500X1.075000X-0.362500X1.075000X0*%
%ADD12RoundRect,0.237500X-0.237500X-0.837500X0.237500X-0.837500X0.237500X0.837500X-0.237500X0.837500X0*%
%ADD13RoundRect,0.200000X-0.200000X-0.275000X0.200000X-0.275000X0.200000X0.275000X-0.200000X0.275000X0*%
%ADD14RoundRect,0.150000X-0.950000X-0.150000X0.950000X-0.150000X0.950000X0.150000X-0.950000X0.150000X0*%
%ADD15RoundRect,0.537500X-0.537500X-1.187500X0.537500X-1.187500X0.537500X1.187500X-0.537500X1.187500X0*%
%ADD16RoundRect,0.250000X-1.137500X-0.550000X1.137500X-0.550000X1.137500X0.550000X-1.137500X0.550000X0*%
%ADD17RoundRect,0.250000X-0.250000X-1.450000X0.250000X-1.450000X0.250000X1.450000X-0.250000X1.450000X0*%
%ADD18RoundRect,0.150000X0.825000X0.150000X-0.825000X0.150000X-0.825000X-0.150000X0.825000X-0.150000X0*%
%ADD19RoundRect,0.250000X-0.312500X-1.075000X0.312500X-1.075000X0.312500X1.075000X-0.312500X1.075000X0*%
%ADD20RoundRect,0.250000X-0.250000X-0.475000X0.250000X-0.475000X0.250000X0.475000X-0.250000X0.475000X0*%
%ADD21RoundRect,0.250000X-0.325000X-2.350000X0.325000X-2.350000X0.325000X2.350000X-0.325000X2.350000X0*%
%ADD22RoundRect,0.250000X-0.312500X-0.625000X0.312500X-0.625000X0.312500X0.625000X-0.312500X0.625000X0*%
%ADD23RoundRect,0.062500X-0.062500X0.375000X-0.062500X-0.375000X0.062500X-0.375000X0.062500X0.375000X0*%
%ADD24RoundRect,0.062500X-0.375000X0.062500X-0.375000X-0.062500X0.375000X-0.062500X0.375000X0.062500X0*%
%ADD25R,2.500000X2.500000*%
%ADD26RoundRect,0.250000X-0.262500X-1.775000X0.262500X-1.775000X0.262500X1.775000X-0.262500X1.775000X0*%
%ADD27RoundRect,0.250000X-0.262500X-0.450000X0.262500X-0.450000X0.262500X0.450000X-0.262500X0.450000X0*%
%ADD28RoundRect,0.250000X-0.312500X-1.450000X0.312500X-1.450000X0.312500X1.450000X-0.312500X1.450000X0*%
G04 APERTURE END LIST*
D10*
%TO.C,C2*%
X231605000Y-144737500D03*
X231605000Y-140462500D03*
%TD*%
D11*
%TO.C,R10*%
X137692500Y-143803200D03*
X142317500Y-143803200D03*
%TD*%
D12*
%TO.C,R1*%
X91625000Y-131603200D03*
X92775000Y-131603200D03*
%TD*%
D13*
%TO.C,R2*%
X91375000Y-135203200D03*
X93025000Y-135203200D03*
%TD*%
D14*
%TO.C,U3*%
X283662500Y-138260000D03*
X283662500Y-139530000D03*
X283662500Y-140800000D03*
X283662500Y-142070000D03*
X283662500Y-143340000D03*
D15*
X289962500Y-140800000D03*
%TD*%
D16*
%TO.C,C1*%
X275480000Y-133600000D03*
X279605000Y-133600000D03*
%TD*%
D17*
%TO.C,R3*%
X91450000Y-139375000D03*
X92950000Y-139375000D03*
%TD*%
D10*
%TO.C,C3*%
X251605000Y-135537500D03*
X251605000Y-131262500D03*
%TD*%
D18*
%TO.C,U1*%
X262955000Y-142000000D03*
X262955000Y-140730000D03*
X262955000Y-139460000D03*
X262955000Y-138190000D03*
X262955000Y-136920000D03*
X262955000Y-135650000D03*
X262955000Y-134380000D03*
X258005000Y-134380000D03*
X258005000Y-135650000D03*
X258005000Y-136920000D03*
X258005000Y-138190000D03*
X258005000Y-139460000D03*
X258005000Y-140730000D03*
X258005000Y-142000000D03*
%TD*%
D11*
%TO.C,R11*%
X223897500Y-134205000D03*
X228522500Y-134205000D03*
%TD*%
D19*
%TO.C,R8*%
X138537500Y-131598200D03*
X141462500Y-131598200D03*
%TD*%
D20*
%TO.C,C4*%
X233255000Y-134200000D03*
X235155000Y-134200000D03*
%TD*%
D21*
%TO.C,R6*%
X114075000Y-138398200D03*
X116325000Y-138398200D03*
%TD*%
D22*
%TO.C,R7*%
X113737500Y-143998200D03*
X116662500Y-143998200D03*
%TD*%
D23*
%TO.C,U2*%
X240517500Y-137287500D03*
X240017500Y-137287500D03*
X239517500Y-137287500D03*
X239017500Y-137287500D03*
X238517500Y-137287500D03*
X238017500Y-137287500D03*
D24*
X237330000Y-137975000D03*
X237330000Y-138475000D03*
X237330000Y-138975000D03*
X237330000Y-139475000D03*
X237330000Y-139975000D03*
X237330000Y-140475000D03*
D23*
X238017500Y-141162500D03*
X238517500Y-141162500D03*
X239017500Y-141162500D03*
X239517500Y-141162500D03*
X240017500Y-141162500D03*
X240517500Y-141162500D03*
D24*
X241205000Y-140475000D03*
X241205000Y-139975000D03*
X241205000Y-139475000D03*
X241205000Y-138975000D03*
X241205000Y-138475000D03*
X241205000Y-137975000D03*
D25*
X239267500Y-139225000D03*
%TD*%
D26*
%TO.C,R5*%
X114262500Y-131598200D03*
X116137500Y-131598200D03*
%TD*%
D27*
%TO.C,R4*%
X91287500Y-143800000D03*
X93112500Y-143800000D03*
%TD*%
D28*
%TO.C,R9*%
X137862500Y-137798200D03*
X142137500Y-137798200D03*
%TD*%
M02*
